# xmcd
#
# Track frame offsets:
#  150
#  11772
#  23931
#  34056
#  48033
#  59524
#  72324
#  82867
#  91676
#  102993
#
# Disc length: 1532 seconds
#
# Revision: 0
# Processed by: cddbd v1.5.1PL0 Copyright (c) Steve Scherf et al.
# Submitted via: Collectorz.com Music Collector 6.9
#
DISCID=7305fa0a
DTITLE=Lefty Frizzell's - Lefty Frizzell's Country Favorites (1979)
DYEAR=1900
DGENRE=
TTITLE0=A King Without A Queen
TTITLE1=My Baby's Just Like Money
TTITLE2=(Honey, Baby, Hurry) Bring your Sweet Self Back To Me
TTITLE3=Run 'Em Off
TTITLE4=I Love You Mostly
TTITLE5=You're Just Mine (Only In My Dreams)
TTITLE6=Give Me More, More, More (Of Your Kisses)
TTITLE7=From An Angel To A Devil
TTITLE8=Sweet Lies
TTITLE9=Two Hearts Broken Now
EXTD=
EXTT0=
EXTT1=
EXTT2=
EXTT3=
EXTT4=
EXTT5=
EXTT6=
EXTT7=
EXTT8=
EXTT9=
PLAYORDER=
